<mxfile host="65bd71144e" pages="3">
    <diagram id="CezKlIo9kEbH09fe8Lgx" name="Only accuracy dataframe">
        <mxGraphModel dx="436" dy="378" grid="1" gridSize="10" guides="1" tooltips="1" connect="1" arrows="1" fold="1" page="0" pageScale="1" pageWidth="850" pageHeight="1100" math="0" shadow="0">
            <root>
                <mxCell id="0"/>
                <mxCell id="1" parent="0"/>
                <mxCell id="1gsgTnn1MojumhcbCuec-44" value="Only accuracy measurement" style="text;html=1;align=left;verticalAlign=bottom;resizable=0;points=[];autosize=1;strokeColor=none;fillColor=none;fontFamily=Times New Roman;" parent="1" vertex="1">
                    <mxGeometry x="560" y="450" width="160" height="30" as="geometry"/>
                </mxCell>
                <mxCell id="1gsgTnn1MojumhcbCuec-45" value="Info" style="rounded=0;whiteSpace=wrap;html=1;fontFamily=Times New Roman;" parent="1" vertex="1">
                    <mxGeometry x="640" y="480" width="40" height="40" as="geometry"/>
                </mxCell>
                <mxCell id="1gsgTnn1MojumhcbCuec-46" value="# sensors" style="rounded=0;whiteSpace=wrap;html=1;fontFamily=Times New Roman;" parent="1" vertex="1">
                    <mxGeometry x="680" y="480" width="40" height="40" as="geometry"/>
                </mxCell>
                <mxCell id="1gsgTnn1MojumhcbCuec-47" value="&lt;div&gt;Sensor 1 sample&lt;/div&gt;" style="rounded=0;whiteSpace=wrap;html=1;fontFamily=Times New Roman;" parent="1" vertex="1">
                    <mxGeometry x="720" y="480" width="160" height="40" as="geometry"/>
                </mxCell>
                <mxCell id="1gsgTnn1MojumhcbCuec-48" value="Sensor 2 sample" style="rounded=0;whiteSpace=wrap;html=1;fontFamily=Times New Roman;" parent="1" vertex="1">
                    <mxGeometry x="880" y="480" width="160" height="40" as="geometry"/>
                </mxCell>
                <mxCell id="1gsgTnn1MojumhcbCuec-49" value="" style="endArrow=none;html=1;rounded=0;fontFamily=Times New Roman;" parent="1" edge="1">
                    <mxGeometry width="50" height="50" relative="1" as="geometry">
                        <mxPoint x="1040" y="520" as="sourcePoint"/>
                        <mxPoint x="1080" y="520.12" as="targetPoint"/>
                    </mxGeometry>
                </mxCell>
                <mxCell id="1gsgTnn1MojumhcbCuec-50" value="" style="endArrow=none;html=1;rounded=0;exitX=1;exitY=1;exitDx=0;exitDy=0;fontFamily=Times New Roman;" parent="1" edge="1">
                    <mxGeometry width="50" height="50" relative="1" as="geometry">
                        <mxPoint x="1040" y="480" as="sourcePoint"/>
                        <mxPoint x="1080" y="480" as="targetPoint"/>
                    </mxGeometry>
                </mxCell>
                <mxCell id="1gsgTnn1MojumhcbCuec-51" value="" style="endArrow=none;html=1;rounded=1;curved=0;fontFamily=Times New Roman;" parent="1" edge="1">
                    <mxGeometry width="50" height="50" relative="1" as="geometry">
                        <mxPoint x="1080" y="520" as="sourcePoint"/>
                        <mxPoint x="1080" y="480" as="targetPoint"/>
                        <Array as="points">
                            <mxPoint x="1090" y="510"/>
                            <mxPoint x="1070" y="490"/>
                        </Array>
                    </mxGeometry>
                </mxCell>
                <mxCell id="1gsgTnn1MojumhcbCuec-52" value="" style="endArrow=none;html=1;rounded=1;curved=0;fontFamily=Times New Roman;" parent="1" edge="1">
                    <mxGeometry width="50" height="50" relative="1" as="geometry">
                        <mxPoint x="600" y="570" as="sourcePoint"/>
                        <mxPoint x="600" y="530" as="targetPoint"/>
                        <Array as="points">
                            <mxPoint x="610" y="560"/>
                            <mxPoint x="590" y="540"/>
                        </Array>
                    </mxGeometry>
                </mxCell>
                <mxCell id="1gsgTnn1MojumhcbCuec-53" value="" style="endArrow=none;html=1;rounded=0;exitX=1;exitY=1;exitDx=0;exitDy=0;fontFamily=Times New Roman;" parent="1" edge="1">
                    <mxGeometry width="50" height="50" relative="1" as="geometry">
                        <mxPoint x="600" y="570" as="sourcePoint"/>
                        <mxPoint x="640" y="570" as="targetPoint"/>
                    </mxGeometry>
                </mxCell>
                <mxCell id="1gsgTnn1MojumhcbCuec-54" value="" style="endArrow=none;html=1;rounded=0;exitX=1;exitY=1;exitDx=0;exitDy=0;fontFamily=Times New Roman;" parent="1" edge="1">
                    <mxGeometry width="50" height="50" relative="1" as="geometry">
                        <mxPoint x="600" y="530" as="sourcePoint"/>
                        <mxPoint x="640" y="530" as="targetPoint"/>
                    </mxGeometry>
                </mxCell>
                <mxCell id="1gsgTnn1MojumhcbCuec-55" value="Estimate" style="rounded=0;whiteSpace=wrap;html=1;fontFamily=Times New Roman;" parent="1" vertex="1">
                    <mxGeometry x="640" y="530" width="160" height="40" as="geometry"/>
                </mxCell>
                <mxCell id="1gsgTnn1MojumhcbCuec-56" value="#bytes in frame" style="rounded=0;whiteSpace=wrap;html=1;fontFamily=Times New Roman;" parent="1" vertex="1">
                    <mxGeometry x="560" y="480" width="80" height="40" as="geometry"/>
                </mxCell>
                <mxCell id="1gsgTnn1MojumhcbCuec-57" value="Size: 4 + 4 * (# sensors + 1) Bytes" style="text;html=1;align=left;verticalAlign=bottom;resizable=0;points=[];autosize=1;strokeColor=none;fillColor=none;fontFamily=Times New Roman;" parent="1" vertex="1">
                    <mxGeometry x="760" y="450" width="190" height="30" as="geometry"/>
                </mxCell>
                <mxCell id="suP6KwwtiiUI_wZViS6E-1" value="" style="endArrow=none;dashed=1;html=1;dashPattern=1 3;strokeWidth=2;fontFamily=Times New Roman;" parent="1" edge="1">
                    <mxGeometry width="50" height="50" relative="1" as="geometry">
                        <mxPoint x="1090" y="499.79999999999995" as="sourcePoint"/>
                        <mxPoint x="1110" y="499.79999999999995" as="targetPoint"/>
                    </mxGeometry>
                </mxCell>
                <mxCell id="suP6KwwtiiUI_wZViS6E-2" value="" style="endArrow=none;dashed=1;html=1;dashPattern=1 3;strokeWidth=2;fontFamily=Times New Roman;" parent="1" edge="1">
                    <mxGeometry width="50" height="50" relative="1" as="geometry">
                        <mxPoint x="570" y="549.8" as="sourcePoint"/>
                        <mxPoint x="590" y="549.8" as="targetPoint"/>
                    </mxGeometry>
                </mxCell>
            </root>
        </mxGraphModel>
    </diagram>
    <diagram name="Threshold dataframes" id="5MaY97g2fDwm6gCs_19E">
        <mxGraphModel dx="436" dy="778" grid="1" gridSize="10" guides="1" tooltips="1" connect="1" arrows="1" fold="1" page="0" pageScale="1" pageWidth="850" pageHeight="1100" math="0" shadow="0">
            <root>
                <mxCell id="0"/>
                <mxCell id="1" parent="0"/>
                <mxCell id="zo_QFZK9yHUCaQbPfVJ--23" value="Info" style="rounded=0;whiteSpace=wrap;html=1;fontFamily=Times New Roman;" parent="1" vertex="1">
                    <mxGeometry x="640" y="80" width="40" height="40" as="geometry"/>
                </mxCell>
                <mxCell id="zo_QFZK9yHUCaQbPfVJ--24" value="sampled value" style="rounded=0;whiteSpace=wrap;html=1;fontFamily=Times New Roman;" parent="1" vertex="1">
                    <mxGeometry x="760" y="80" width="160" height="40" as="geometry"/>
                </mxCell>
                <mxCell id="zo_QFZK9yHUCaQbPfVJ--25" value="ms since last" style="rounded=0;whiteSpace=wrap;html=1;fontFamily=Times New Roman;" parent="1" vertex="1">
                    <mxGeometry x="680" y="80" width="80" height="40" as="geometry"/>
                </mxCell>
                <mxCell id="zo_QFZK9yHUCaQbPfVJ--26" value="Threshold: only sample" style="text;html=1;align=left;verticalAlign=bottom;resizable=0;points=[];autosize=1;strokeColor=none;fillColor=none;fontFamily=Times New Roman;" parent="1" vertex="1">
                    <mxGeometry x="560" y="50" width="140" height="30" as="geometry"/>
                </mxCell>
                <mxCell id="zo_QFZK9yHUCaQbPfVJ--27" value="Threshold: Measurement" style="text;html=1;align=left;verticalAlign=bottom;resizable=0;points=[];autosize=1;strokeColor=none;fillColor=none;fontFamily=Times New Roman;" parent="1" vertex="1">
                    <mxGeometry x="560" y="150" width="140" height="30" as="geometry"/>
                </mxCell>
                <mxCell id="zo_QFZK9yHUCaQbPfVJ--28" value="Info" style="rounded=0;whiteSpace=wrap;html=1;fontFamily=Times New Roman;" parent="1" vertex="1">
                    <mxGeometry x="640" y="180" width="40" height="40" as="geometry"/>
                </mxCell>
                <mxCell id="zo_QFZK9yHUCaQbPfVJ--29" value="# sensors" style="rounded=0;whiteSpace=wrap;html=1;fontFamily=Times New Roman;" parent="1" vertex="1">
                    <mxGeometry x="680" y="180" width="40" height="40" as="geometry"/>
                </mxCell>
                <mxCell id="zo_QFZK9yHUCaQbPfVJ--31" value="&lt;div&gt;Sensor 1 sample&lt;/div&gt;" style="rounded=0;whiteSpace=wrap;html=1;fontFamily=Times New Roman;" parent="1" vertex="1">
                    <mxGeometry x="800" y="180" width="160" height="40" as="geometry"/>
                </mxCell>
                <mxCell id="zo_QFZK9yHUCaQbPfVJ--32" value="Sensor 2 sample" style="rounded=0;whiteSpace=wrap;html=1;fontFamily=Times New Roman;" parent="1" vertex="1">
                    <mxGeometry x="960" y="180" width="160" height="40" as="geometry"/>
                </mxCell>
                <mxCell id="zo_QFZK9yHUCaQbPfVJ--35" value="" style="endArrow=none;html=1;rounded=0;exitX=1;exitY=1;exitDx=0;exitDy=0;fontFamily=Times New Roman;" parent="1" edge="1">
                    <mxGeometry width="50" height="50" relative="1" as="geometry">
                        <mxPoint x="1120" y="220" as="sourcePoint"/>
                        <mxPoint x="1160" y="220.36" as="targetPoint"/>
                    </mxGeometry>
                </mxCell>
                <mxCell id="zo_QFZK9yHUCaQbPfVJ--36" value="" style="endArrow=none;html=1;rounded=0;exitX=1;exitY=1;exitDx=0;exitDy=0;fontFamily=Times New Roman;" parent="1" edge="1">
                    <mxGeometry width="50" height="50" relative="1" as="geometry">
                        <mxPoint x="1120" y="180" as="sourcePoint"/>
                        <mxPoint x="1160" y="180" as="targetPoint"/>
                    </mxGeometry>
                </mxCell>
                <mxCell id="zo_QFZK9yHUCaQbPfVJ--37" value="" style="endArrow=none;html=1;rounded=1;curved=0;fontFamily=Times New Roman;" parent="1" edge="1">
                    <mxGeometry width="50" height="50" relative="1" as="geometry">
                        <mxPoint x="1160" y="220" as="sourcePoint"/>
                        <mxPoint x="1160" y="180" as="targetPoint"/>
                        <Array as="points">
                            <mxPoint x="1170" y="210"/>
                            <mxPoint x="1150" y="190"/>
                        </Array>
                    </mxGeometry>
                </mxCell>
                <mxCell id="zo_QFZK9yHUCaQbPfVJ--42" value="" style="endArrow=none;html=1;rounded=1;curved=0;fontFamily=Times New Roman;" parent="1" edge="1">
                    <mxGeometry width="50" height="50" relative="1" as="geometry">
                        <mxPoint x="600" y="270" as="sourcePoint"/>
                        <mxPoint x="600" y="230" as="targetPoint"/>
                        <Array as="points">
                            <mxPoint x="610" y="260"/>
                            <mxPoint x="590" y="240"/>
                        </Array>
                    </mxGeometry>
                </mxCell>
                <mxCell id="zo_QFZK9yHUCaQbPfVJ--43" value="" style="endArrow=none;html=1;rounded=0;exitX=1;exitY=1;exitDx=0;exitDy=0;fontFamily=Times New Roman;" parent="1" edge="1">
                    <mxGeometry width="50" height="50" relative="1" as="geometry">
                        <mxPoint x="600" y="270" as="sourcePoint"/>
                        <mxPoint x="640" y="270" as="targetPoint"/>
                    </mxGeometry>
                </mxCell>
                <mxCell id="zo_QFZK9yHUCaQbPfVJ--44" value="" style="endArrow=none;html=1;rounded=0;exitX=1;exitY=1;exitDx=0;exitDy=0;fontFamily=Times New Roman;" parent="1" edge="1">
                    <mxGeometry width="50" height="50" relative="1" as="geometry">
                        <mxPoint x="600" y="230" as="sourcePoint"/>
                        <mxPoint x="640" y="230" as="targetPoint"/>
                    </mxGeometry>
                </mxCell>
                <mxCell id="zo_QFZK9yHUCaQbPfVJ--46" value="Estimate" style="rounded=0;whiteSpace=wrap;html=1;fontFamily=Times New Roman;" parent="1" vertex="1">
                    <mxGeometry x="640" y="230" width="160" height="40" as="geometry"/>
                </mxCell>
                <mxCell id="zo_QFZK9yHUCaQbPfVJ--85" value="#bytes in frame" style="rounded=0;whiteSpace=wrap;html=1;fontFamily=Times New Roman;" parent="1" vertex="1">
                    <mxGeometry x="560" y="80" width="80" height="40" as="geometry"/>
                </mxCell>
                <mxCell id="zo_QFZK9yHUCaQbPfVJ--86" value="#bytes in frame" style="rounded=0;whiteSpace=wrap;html=1;fontFamily=Times New Roman;" parent="1" vertex="1">
                    <mxGeometry x="560" y="180" width="80" height="40" as="geometry"/>
                </mxCell>
                <mxCell id="tW8qwgzpdADA8kUmM1yN-1" value="ms since last" style="rounded=0;whiteSpace=wrap;html=1;fontFamily=Times New Roman;" parent="1" vertex="1">
                    <mxGeometry x="720" y="180" width="80" height="40" as="geometry"/>
                </mxCell>
                <mxCell id="tW8qwgzpdADA8kUmM1yN-2" value="Size: 9 Bytes" style="text;html=1;align=left;verticalAlign=bottom;resizable=0;points=[];autosize=1;strokeColor=none;fillColor=none;fontFamily=Times New Roman;" parent="1" vertex="1">
                    <mxGeometry x="760" y="50" width="90" height="30" as="geometry"/>
                </mxCell>
                <mxCell id="tW8qwgzpdADA8kUmM1yN-3" value="Size: 6 + 4 * (# sensors + 1) Bytes" style="text;html=1;align=left;verticalAlign=bottom;resizable=0;points=[];autosize=1;strokeColor=none;fillColor=none;fontFamily=Times New Roman;" parent="1" vertex="1">
                    <mxGeometry x="760" y="150" width="190" height="30" as="geometry"/>
                </mxCell>
                <mxCell id="-DHKiChX_dCqWWMO0qg_-1" value="" style="endArrow=none;dashed=1;html=1;dashPattern=1 3;strokeWidth=2;fontFamily=Times New Roman;" parent="1" edge="1">
                    <mxGeometry width="50" height="50" relative="1" as="geometry">
                        <mxPoint x="1170" y="200" as="sourcePoint"/>
                        <mxPoint x="1190" y="200" as="targetPoint"/>
                    </mxGeometry>
                </mxCell>
                <mxCell id="-DHKiChX_dCqWWMO0qg_-3" value="" style="endArrow=none;dashed=1;html=1;dashPattern=1 3;strokeWidth=2;fontFamily=Times New Roman;" parent="1" edge="1">
                    <mxGeometry width="50" height="50" relative="1" as="geometry">
                        <mxPoint x="570" y="249.66" as="sourcePoint"/>
                        <mxPoint x="590" y="249.66" as="targetPoint"/>
                    </mxGeometry>
                </mxCell>
            </root>
        </mxGraphModel>
    </diagram>
    <diagram id="yJvN65ZclcWoMzJMrlJ4" name="Dynamicity dataframe">
        <mxGraphModel dx="169" dy="389" grid="1" gridSize="10" guides="1" tooltips="1" connect="1" arrows="1" fold="1" page="0" pageScale="1" pageWidth="850" pageHeight="1100" math="0" shadow="0">
            <root>
                <mxCell id="0"/>
                <mxCell id="1" parent="0"/>
                <mxCell id="sbcVqz6nusUQnK_1MTpJ-17" value="Dynamicity based sampling" style="text;html=1;align=left;verticalAlign=bottom;resizable=0;points=[];autosize=1;strokeColor=none;fillColor=none;fontFamily=Times New Roman;" parent="1" vertex="1">
                    <mxGeometry x="560" y="270" width="160" height="30" as="geometry"/>
                </mxCell>
                <mxCell id="sbcVqz6nusUQnK_1MTpJ-18" value="Info" style="rounded=0;whiteSpace=wrap;html=1;fontFamily=Times New Roman;" parent="1" vertex="1">
                    <mxGeometry x="640" y="300" width="40" height="40" as="geometry"/>
                </mxCell>
                <mxCell id="sbcVqz6nusUQnK_1MTpJ-19" value="# samples" style="rounded=0;whiteSpace=wrap;html=1;fontFamily=Times New Roman;" parent="1" vertex="1">
                    <mxGeometry x="720" y="300" width="40" height="40" as="geometry"/>
                </mxCell>
                <mxCell id="sbcVqz6nusUQnK_1MTpJ-20" value="# sensors" style="rounded=0;whiteSpace=wrap;html=1;fontFamily=Times New Roman;" parent="1" vertex="1">
                    <mxGeometry x="680" y="300" width="40" height="40" as="geometry"/>
                </mxCell>
                <mxCell id="sbcVqz6nusUQnK_1MTpJ-21" value="Sensor 1 sample 1" style="rounded=0;whiteSpace=wrap;html=1;fontFamily=Times New Roman;" parent="1" vertex="1">
                    <mxGeometry x="760" y="300" width="160" height="40" as="geometry"/>
                </mxCell>
                <mxCell id="sbcVqz6nusUQnK_1MTpJ-22" value="" style="endArrow=none;html=1;rounded=0;exitX=1;exitY=1;exitDx=0;exitDy=0;fontFamily=Times New Roman;" parent="1" edge="1">
                    <mxGeometry width="50" height="50" relative="1" as="geometry">
                        <mxPoint x="920" y="339.8" as="sourcePoint"/>
                        <mxPoint x="960" y="339.8" as="targetPoint"/>
                    </mxGeometry>
                </mxCell>
                <mxCell id="sbcVqz6nusUQnK_1MTpJ-23" value="" style="endArrow=none;html=1;rounded=0;exitX=1;exitY=1;exitDx=0;exitDy=0;fontFamily=Times New Roman;" parent="1" edge="1">
                    <mxGeometry width="50" height="50" relative="1" as="geometry">
                        <mxPoint x="920" y="300" as="sourcePoint"/>
                        <mxPoint x="960" y="300" as="targetPoint"/>
                    </mxGeometry>
                </mxCell>
                <mxCell id="sbcVqz6nusUQnK_1MTpJ-24" value="" style="endArrow=none;html=1;rounded=1;curved=0;fontFamily=Times New Roman;" parent="1" edge="1">
                    <mxGeometry width="50" height="50" relative="1" as="geometry">
                        <mxPoint x="960" y="340" as="sourcePoint"/>
                        <mxPoint x="960" y="300" as="targetPoint"/>
                        <Array as="points">
                            <mxPoint x="970" y="330"/>
                            <mxPoint x="950" y="310"/>
                        </Array>
                    </mxGeometry>
                </mxCell>
                <mxCell id="sbcVqz6nusUQnK_1MTpJ-25" value="" style="endArrow=none;html=1;rounded=1;curved=0;fontFamily=Times New Roman;" parent="1" edge="1">
                    <mxGeometry width="50" height="50" relative="1" as="geometry">
                        <mxPoint x="600" y="390" as="sourcePoint"/>
                        <mxPoint x="600" y="350" as="targetPoint"/>
                        <Array as="points">
                            <mxPoint x="610" y="380"/>
                            <mxPoint x="590" y="360"/>
                        </Array>
                    </mxGeometry>
                </mxCell>
                <mxCell id="sbcVqz6nusUQnK_1MTpJ-26" value="" style="endArrow=none;html=1;rounded=0;exitX=1;exitY=1;exitDx=0;exitDy=0;fontFamily=Times New Roman;" parent="1" edge="1">
                    <mxGeometry width="50" height="50" relative="1" as="geometry">
                        <mxPoint x="600" y="389.79999999999995" as="sourcePoint"/>
                        <mxPoint x="640" y="389.79999999999995" as="targetPoint"/>
                    </mxGeometry>
                </mxCell>
                <mxCell id="sbcVqz6nusUQnK_1MTpJ-27" value="" style="endArrow=none;html=1;rounded=0;exitX=1;exitY=1;exitDx=0;exitDy=0;fontFamily=Times New Roman;" parent="1" edge="1">
                    <mxGeometry width="50" height="50" relative="1" as="geometry">
                        <mxPoint x="600" y="350" as="sourcePoint"/>
                        <mxPoint x="640" y="350" as="targetPoint"/>
                    </mxGeometry>
                </mxCell>
                <mxCell id="sbcVqz6nusUQnK_1MTpJ-28" value="Sample 1 estimate" style="rounded=0;whiteSpace=wrap;html=1;fontFamily=Times New Roman;" parent="1" vertex="1">
                    <mxGeometry x="640" y="350" width="160" height="40" as="geometry"/>
                </mxCell>
                <mxCell id="sbcVqz6nusUQnK_1MTpJ-29" value="" style="endArrow=none;html=1;rounded=0;fontFamily=Times New Roman;" parent="1" edge="1">
                    <mxGeometry width="50" height="50" relative="1" as="geometry">
                        <mxPoint x="800" y="390" as="sourcePoint"/>
                        <mxPoint x="840" y="390" as="targetPoint"/>
                    </mxGeometry>
                </mxCell>
                <mxCell id="sbcVqz6nusUQnK_1MTpJ-30" value="" style="endArrow=none;html=1;rounded=0;exitX=1;exitY=1;exitDx=0;exitDy=0;fontFamily=Times New Roman;" parent="1" edge="1">
                    <mxGeometry width="50" height="50" relative="1" as="geometry">
                        <mxPoint x="800" y="350" as="sourcePoint"/>
                        <mxPoint x="840" y="350" as="targetPoint"/>
                    </mxGeometry>
                </mxCell>
                <mxCell id="sbcVqz6nusUQnK_1MTpJ-31" value="" style="endArrow=none;html=1;rounded=1;curved=0;fontFamily=Times New Roman;" parent="1" edge="1">
                    <mxGeometry width="50" height="50" relative="1" as="geometry">
                        <mxPoint x="840" y="390" as="sourcePoint"/>
                        <mxPoint x="840" y="350" as="targetPoint"/>
                        <Array as="points">
                            <mxPoint x="850" y="380"/>
                            <mxPoint x="830" y="360"/>
                        </Array>
                    </mxGeometry>
                </mxCell>
                <mxCell id="sbcVqz6nusUQnK_1MTpJ-32" value="" style="endArrow=none;html=1;rounded=1;curved=0;fontFamily=Times New Roman;" parent="1" edge="1">
                    <mxGeometry width="50" height="50" relative="1" as="geometry">
                        <mxPoint x="600" y="440" as="sourcePoint"/>
                        <mxPoint x="600" y="400" as="targetPoint"/>
                        <Array as="points">
                            <mxPoint x="610" y="430"/>
                            <mxPoint x="590" y="410"/>
                        </Array>
                    </mxGeometry>
                </mxCell>
                <mxCell id="sbcVqz6nusUQnK_1MTpJ-33" value="" style="endArrow=none;html=1;rounded=0;fontFamily=Times New Roman;" parent="1" edge="1">
                    <mxGeometry width="50" height="50" relative="1" as="geometry">
                        <mxPoint x="600" y="439.99999999999994" as="sourcePoint"/>
                        <mxPoint x="640" y="439.99999999999994" as="targetPoint"/>
                    </mxGeometry>
                </mxCell>
                <mxCell id="sbcVqz6nusUQnK_1MTpJ-34" value="" style="endArrow=none;html=1;rounded=0;fontFamily=Times New Roman;" parent="1" edge="1">
                    <mxGeometry width="50" height="50" relative="1" as="geometry">
                        <mxPoint x="600" y="399.99999999999994" as="sourcePoint"/>
                        <mxPoint x="640" y="399.99999999999994" as="targetPoint"/>
                    </mxGeometry>
                </mxCell>
                <mxCell id="sbcVqz6nusUQnK_1MTpJ-35" value="Sample n estimate" style="rounded=0;whiteSpace=wrap;html=1;fontFamily=Times New Roman;" parent="1" vertex="1">
                    <mxGeometry x="640" y="400" width="160" height="40" as="geometry"/>
                </mxCell>
                <mxCell id="sbcVqz6nusUQnK_1MTpJ-36" value="Time to wait in ms" style="rounded=0;whiteSpace=wrap;html=1;fontFamily=Times New Roman;" parent="1" vertex="1">
                    <mxGeometry x="800" y="400" width="80" height="40" as="geometry"/>
                </mxCell>
                <mxCell id="sbcVqz6nusUQnK_1MTpJ-39" value="#bytes in frame" style="rounded=0;whiteSpace=wrap;html=1;fontFamily=Times New Roman;" parent="1" vertex="1">
                    <mxGeometry x="560" y="300" width="80" height="40" as="geometry"/>
                </mxCell>
                <mxCell id="sbcVqz6nusUQnK_1MTpJ-43" value="Size: 7 + 4 * (# sensors + 1) * (# samples)&amp;nbsp; Bytes" style="text;html=1;align=left;verticalAlign=bottom;resizable=0;points=[];autosize=1;strokeColor=none;fillColor=none;fontFamily=Times New Roman;" parent="1" vertex="1">
                    <mxGeometry x="760" y="270" width="260" height="30" as="geometry"/>
                </mxCell>
                <mxCell id="EBIsd9LEnRhdcCV3pBYp-1" value="" style="endArrow=none;dashed=1;html=1;dashPattern=1 3;strokeWidth=2;fontFamily=Times New Roman;" parent="1" edge="1">
                    <mxGeometry width="50" height="50" relative="1" as="geometry">
                        <mxPoint x="970" y="319.58" as="sourcePoint"/>
                        <mxPoint x="990" y="319.58" as="targetPoint"/>
                    </mxGeometry>
                </mxCell>
                <mxCell id="EBIsd9LEnRhdcCV3pBYp-2" value="" style="endArrow=none;dashed=1;html=1;dashPattern=1 3;strokeWidth=2;fontFamily=Times New Roman;" parent="1" edge="1">
                    <mxGeometry width="50" height="50" relative="1" as="geometry">
                        <mxPoint x="570" y="369.80000000000007" as="sourcePoint"/>
                        <mxPoint x="590" y="369.80000000000007" as="targetPoint"/>
                    </mxGeometry>
                </mxCell>
                <mxCell id="EBIsd9LEnRhdcCV3pBYp-3" value="" style="endArrow=none;dashed=1;html=1;dashPattern=1 3;strokeWidth=2;fontFamily=Times New Roman;" parent="1" edge="1">
                    <mxGeometry width="50" height="50" relative="1" as="geometry">
                        <mxPoint x="570" y="419.80000000000007" as="sourcePoint"/>
                        <mxPoint x="590" y="419.80000000000007" as="targetPoint"/>
                    </mxGeometry>
                </mxCell>
                <mxCell id="EBIsd9LEnRhdcCV3pBYp-4" value="" style="endArrow=none;dashed=1;html=1;dashPattern=1 3;strokeWidth=2;fontFamily=Times New Roman;" parent="1" edge="1">
                    <mxGeometry width="50" height="50" relative="1" as="geometry">
                        <mxPoint x="850" y="369.80000000000007" as="sourcePoint"/>
                        <mxPoint x="870" y="369.80000000000007" as="targetPoint"/>
                    </mxGeometry>
                </mxCell>
            </root>
        </mxGraphModel>
    </diagram>
</mxfile>